<svg id="Layer_1" data-name="Layer 1" xmlns="http://www.w3.org/2000/svg" viewBox="0 0 31.97 32"><defs><style>.cls-1{fill:#231f20;}</style></defs><title>ghost</title><path class="cls-1" d="M27,11.3a6.72,6.72,0,0,1,2,1A7,7,0,0,1,32,18v1.51a2.39,2.39,0,0,1-.2,1,2.72,2.72,0,0,1-.53.8,2.6,2.6,0,0,1-.8.53,2.44,2.44,0,0,1-1.81.05,2.5,2.5,0,0,1-.73-.41,2.41,2.41,0,0,1-.56-.63,2.23,2.23,0,0,1-.31-.8.2.2,0,0,0-.2.14c0,.08-.05.16-.07.23-.18.75-.38,1.49-.6,2.21a11.06,11.06,0,0,1-.9,2.11A14.26,14.26,0,0,1,20.13,30a14.15,14.15,0,0,1-3.39,1.45A13.8,13.8,0,0,1,13,32a14.24,14.24,0,0,1-7.32-2,13.81,13.81,0,0,1-3-2.38A13.15,13.15,0,0,1,.47,24.46a4.84,4.84,0,0,1-.32-.79A2.7,2.7,0,0,1,0,22.82a2.34,2.34,0,0,1,.18-.91,2.15,2.15,0,0,1,.48-.74,2.16,2.16,0,0,1,.72-.5,2.12,2.12,0,0,1,.91-.19,2.94,2.94,0,0,1,.51.05,1.78,1.78,0,0,1,.49.17A2.59,2.59,0,0,1,3,19.9,5.73,5.73,0,0,1,3,19.06v-.53c0-.17,0-.35,0-.53a6.94,6.94,0,0,1,1.39-4.18A6.76,6.76,0,0,1,6,12.29a6.61,6.61,0,0,1,2-1v-.24c0-.57,0-1.12,0-1.63a8.31,8.31,0,0,1,.17-1.51,6.74,6.74,0,0,1,.44-1.45A6.63,6.63,0,0,1,9.49,5c-.2-.17-.38-.35-.56-.53a3.35,3.35,0,0,1-.49-.57,3.06,3.06,0,0,1-.33-.65A2.35,2.35,0,0,1,8,2.5,2.46,2.46,0,0,1,8.72.73,2.52,2.52,0,0,1,9.51.19a2.45,2.45,0,0,1,1-.19H16a10.5,10.5,0,0,1,2.92.4,11.11,11.11,0,0,1,2.63,1.11,11.15,11.15,0,0,1,3.94,3.94A11.57,11.57,0,0,1,26.6,8.08,10.9,10.9,0,0,1,27,11ZM30,18a4.76,4.76,0,0,0-.4-1.95,5,5,0,0,0-1.07-1.59,5.17,5.17,0,0,0-1.59-1.07,4.89,4.89,0,0,0-2-.4V11a8.9,8.9,0,0,0-1.23-4.55,9.25,9.25,0,0,0-1.4-1.83,9.05,9.05,0,0,0-4-2.31A9.06,9.06,0,0,0,16,2h-5.5a.45.45,0,0,0-.35.15A.49.49,0,0,0,10,2.5a.41.41,0,0,0,0,.21,2.09,2.09,0,0,0,.14.17L12.31,5a5.81,5.81,0,0,0-1.7,2A5.34,5.34,0,0,0,10,9.5V13a4.88,4.88,0,0,0-1.94.4,5.2,5.2,0,0,0-1.59,1.08,5.3,5.3,0,0,0-1.07,1.59A4.91,4.91,0,0,0,5,18v1.51a.53.53,0,0,0,.5.5.47.47,0,0,0,.28-.08.43.43,0,0,0,.15-.2A.64.64,0,0,0,6,19.45c0-.1,0-.2,0-.29V19a1,1,0,0,1,.29-.71A.93.93,0,0,1,7,18H9a2,2,0,0,1,.78.16,2.32,2.32,0,0,1,.64.43,2.09,2.09,0,0,1,.42.64A2,2,0,0,1,11,20v.48a4.49,4.49,0,0,1-.35,1.76,4.62,4.62,0,0,1-2.39,2.4A4.48,4.48,0,0,1,6.5,25a3.55,3.55,0,0,1-1.22-.19,4.19,4.19,0,0,1-1-.46,4.28,4.28,0,0,1-.71-.61q-.31-.33-.54-.6c-.16-.19-.3-.34-.43-.47a.54.54,0,0,0-.34-.19.26.26,0,0,0-.22.1.38.38,0,0,0-.07.24.94.94,0,0,0,.07.37,2.83,2.83,0,0,0,.16.36,12.22,12.22,0,0,0,2,2.72,11.84,11.84,0,0,0,2.52,2,12,12,0,0,0,3,1.27A12.47,12.47,0,0,0,13,30a11.87,11.87,0,0,0,3.39-.48,11.39,11.39,0,0,0,3-1.36A12,12,0,0,0,21.91,26a12.62,12.62,0,0,0,1.88-2.84,10.18,10.18,0,0,0,.59-1.56c.16-.52.3-1.06.43-1.6a3.91,3.91,0,0,1,.35-1,1.81,1.81,0,0,1,1.32-.93,5.23,5.23,0,0,1,1-.09,2.18,2.18,0,0,1,.93.15.89.89,0,0,1,.43.37A.92.92,0,0,1,29,19c0,.17,0,.33,0,.48a.7.7,0,0,0,.09.37.43.43,0,0,0,.39.15.45.45,0,0,0,.34-.16.47.47,0,0,0,.16-.34ZM14.51,17a2.91,2.91,0,0,1-1-.35,3.22,3.22,0,0,1-.79-.67,2.9,2.9,0,0,1-.52-.9A2.82,2.82,0,0,1,12,14H23a3,3,0,0,1-.18,1,3.39,3.39,0,0,1-.53.9,3.22,3.22,0,0,1-.79.67,2.91,2.91,0,0,1-1,.35V18.5a2.85,2.85,0,0,1-.24,1.17,3.12,3.12,0,0,1-.64.95,3,3,0,0,1-.95.64,2.95,2.95,0,0,1-2.33,0,3.12,3.12,0,0,1-1-.64,3,3,0,0,1-.89-2.12ZM14,12a1,1,0,0,1-.7-.3A1,1,0,0,1,13,11V9a1,1,0,1,1,2,0v2a1,1,0,0,1-.3.7A.94.94,0,0,1,14,12Zm5.5,3.49h-4v3a2,2,0,0,0,.16.78,2.21,2.21,0,0,0,.44.64,1.93,1.93,0,0,0,.63.42,2,2,0,0,0,.78.15,2.08,2.08,0,0,0,.78-.15,1.93,1.93,0,0,0,.63-.42,2,2,0,0,0,.42-.64,2,2,0,0,0,.16-.78ZM21,12a1,1,0,0,1-.7-.3A1,1,0,0,1,20,11V9a1,1,0,0,1,1-1,1,1,0,0,1,1,1v2a1,1,0,0,1-.3.7A1,1,0,0,1,21,12Z" transform="translate(-0.01)"/></svg>