<svg id="Layer_1" data-name="Layer 1" xmlns="http://www.w3.org/2000/svg" viewBox="0 0 35.84 35.95"><title>icons</title><path d="M17.71,1a18.54,18.54,0,0,1,9.1,2.31,17.21,17.21,0,0,1,9,15.32,18.07,18.07,0,0,1-3.36,10.73A17.12,17.12,0,0,1,23.7,35.9a.94.94,0,0,1-.9-.14.91.91,0,0,1-.33-.72V29a4.11,4.11,0,0,0-1.22-3.33,20.31,20.31,0,0,0,4-.72,6.42,6.42,0,0,0,3.11-2.17,9.27,9.27,0,0,0,1.23-5.13,5.22,5.22,0,0,0-.51-2.38,8.28,8.28,0,0,0-1.37-1.81A5.93,5.93,0,0,0,28,11.7a8,8,0,0,0-.51-3.18,3.28,3.28,0,0,0-2,.28,20.2,20.2,0,0,0-2,1l-.94.65A16.21,16.21,0,0,0,18,9.82a15.44,15.44,0,0,0-4.52.65l-.94-.65a17.11,17.11,0,0,0-2.09-1,3.1,3.1,0,0,0-1.95-.28A6.58,6.58,0,0,0,8,11.7a4.19,4.19,0,0,0,.29,1.66,9.37,9.37,0,0,0-1.27,2,5.83,5.83,0,0,0-.39,2.28,9.36,9.36,0,0,0,1.15,5.06,5.91,5.91,0,0,0,3,2.24,20,20,0,0,0,3.9.72,4,4,0,0,0-1.16,2.46,4.2,4.2,0,0,1-2.38.43,3.47,3.47,0,0,1-2.89-2,3.82,3.82,0,0,0-1.16-1.3A7.6,7.6,0,0,0,6,24.78l-.51-.08c-.53,0-.8.09-.83.26s.09.35.33.54l.36.29a3.47,3.47,0,0,1,1,.94,4.48,4.48,0,0,1,.72,1.15l.29.58a2.92,2.92,0,0,0,1.37,1.66,5.24,5.24,0,0,0,2.1.65,7.42,7.42,0,0,0,1.81-.07l.79-.07L13.51,35a.9.9,0,0,1-.32.72.94.94,0,0,1-.9.14A17.27,17.27,0,0,1,3.4,29.36,17.9,17.9,0,0,1,0,18.63a17.77,17.77,0,0,1,2.31-9A16.75,16.75,0,0,1,8.67,3.31,17.91,17.91,0,0,1,17.71,1ZM6.21,25.35a.31.31,0,0,1,.37,0c.14.07.19.17.14.29s-.16.13-.32,0S6.17,25.45,6.21,25.35Zm.8.58c.1-.1.22-.07.36.07s.17.27.07.37-.21.07-.36-.08S6.91,26,7,25.93Zm.72.94a.36.36,0,0,1,.26,0,.37.37,0,0,1,.18.19c.14.19.14.33,0,.43a.13.13,0,0,1-.18,0l-.26-.15C7.64,27.06,7.64,26.92,7.73,26.87Zm.87,1a.2.2,0,0,1,.22,0,.53.53,0,0,1,.39.39.2.2,0,0,1,0,.22c-.15.15-.32.12-.51-.07a.44.44,0,0,1-.14-.29A.29.29,0,0,1,8.6,27.88Zm1.16.94c0-.19.19-.25.43-.18s.35.17.32.29a.3.3,0,0,1-.18.25.3.3,0,0,1-.29,0A.72.72,0,0,1,9.79,29Q9.69,28.9,9.76,28.82Zm2.24.29c0-.05,0-.1-.11-.14a.57.57,0,0,0-.33-.08c-.24,0-.36.1-.36.29s.13.28.4.26S12,29.3,12,29.11Zm.94-.43q.36,0,.39.21c0,.15-.08.27-.32.37a1,1,0,0,1-.26,0c-.07,0-.12-.11-.14-.25S12.69,28.73,12.94,28.68Z"/></svg>