<svg id="Layer_1" data-name="Layer 1" xmlns="http://www.w3.org/2000/svg" viewBox="0 0 32 32"><defs><style>.cls-1{fill:#231f20;}</style></defs><title>monkey</title><path class="cls-1" d="M28.37,9a3.64,3.64,0,0,1,1.42.41A4,4,0,0,1,31,10.3a3.93,3.93,0,0,1,.77,1.23A3.83,3.83,0,0,1,32,13v4a3.83,3.83,0,0,1-.22,1.31,4.19,4.19,0,0,1-.62,1.14,4,4,0,0,1-.95.88,3.92,3.92,0,0,1-1.22.54v1.95L22.73,29.2a9.37,9.37,0,0,1-3.08,2.08A9.47,9.47,0,0,1,16,32a9,9,0,0,1-3.64-.72,10.59,10.59,0,0,1-3.08-2.06Q7.65,27.66,6.12,26C5.1,25,4.06,23.88,3,22.82V20.87a3.92,3.92,0,0,1-1.22-.54,4,4,0,0,1-.95-.88,4.19,4.19,0,0,1-.62-1.14A3.83,3.83,0,0,1,0,17V13a3.83,3.83,0,0,1,.28-1.46,3.93,3.93,0,0,1,.77-1.23,4,4,0,0,1,1.16-.87A3.64,3.64,0,0,1,3.63,9,12.75,12.75,0,0,1,5.49,5.34,13.15,13.15,0,0,1,11.93.65a13,13,0,0,1,8.13,0A13.14,13.14,0,0,1,23.65,2.5,12.84,12.84,0,0,1,26.5,5.35,12.6,12.6,0,0,1,28.37,9ZM2,17a1.85,1.85,0,0,0,.16.78,1.93,1.93,0,0,0,.42.63,2.16,2.16,0,0,0,.63.44A2.05,2.05,0,0,0,4,19H5V13c0-.33,0-.66,0-1s.08-.66.14-1H4a2,2,0,0,0-.78.15,1.93,1.93,0,0,0-.63.42,1.87,1.87,0,0,0-.42.64A1.83,1.83,0,0,0,2,13ZM22,27.09V19.35l1.07-1.05a8.85,8.85,0,0,0,1-1.07,5.09,5.09,0,0,0,.7-1.22A4.19,4.19,0,0,0,25,14.5a4.45,4.45,0,0,0-.35-1.75,4.62,4.62,0,0,0-2.4-2.39,4.52,4.52,0,0,0-3.16-.14A4.47,4.47,0,0,0,18,10.8a7.75,7.75,0,0,0-1,.85l-1,1-1-1a6.48,6.48,0,0,0-1-.84,4.41,4.41,0,0,0-1.12-.58A4,4,0,0,0,11.51,10a4.33,4.33,0,0,0-1.76.36,4.62,4.62,0,0,0-2.4,2.39A4.45,4.45,0,0,0,7,14.5,4.19,4.19,0,0,0,7.26,16,5.09,5.09,0,0,0,8,17.23a8.85,8.85,0,0,0,1,1.07L10,19.35v7.74c.44.45.88.86,1.31,1.22a8,8,0,0,0,1.37.92,6.69,6.69,0,0,0,1.53.57,8.11,8.11,0,0,0,3.58,0,6.69,6.69,0,0,0,1.53-.57,8,8,0,0,0,1.37-.92C21.12,28,21.56,27.54,22,27.09ZM13,15.5a1.43,1.43,0,0,1-.11.58,1.75,1.75,0,0,1-.32.48,1.31,1.31,0,0,1-.47.32,1.47,1.47,0,0,1-.58.12,1.48,1.48,0,0,1-1.07-.44,1.56,1.56,0,0,1-.32-.47A1.45,1.45,0,0,1,10,15.5v-2a1.48,1.48,0,0,1,.12-.59,1.43,1.43,0,0,1,.33-.47,1.52,1.52,0,0,1,.48-.31,1.5,1.5,0,0,1,1.63.32,1.56,1.56,0,0,1,.32.47,1.4,1.4,0,0,1,.11.58ZM16,28a5,5,0,0,1-3.53-1.48,5.17,5.17,0,0,1-1.07-1.59A4.91,4.91,0,0,1,11,23H21a4.91,4.91,0,0,1-.39,1.94,5.17,5.17,0,0,1-1.07,1.59A5,5,0,0,1,16,28Zm-2-8a1,1,0,0,1-1-1,1,1,0,0,1,1-1,1,1,0,0,1,.7,1.71A1,1,0,0,1,14,20Zm2,5a2,2,0,0,0-1.22.41,2,2,0,0,0-.71,1.08,3.17,3.17,0,0,0,.93.39,3.91,3.91,0,0,0,2,0,3.17,3.17,0,0,0,.93-.39,2,2,0,0,0-.71-1.08A2,2,0,0,0,16,25Zm2-5a1,1,0,0,1-.7-.3,1,1,0,1,1,.7.3Zm4-6.51v2a1.45,1.45,0,0,1-.12.59,1.5,1.5,0,0,1-.8.79,1.48,1.48,0,0,1-.59.12,1.45,1.45,0,0,1-.59-.12,1.36,1.36,0,0,1-.46-.32,1.75,1.75,0,0,1-.32-.48A1.43,1.43,0,0,1,19,15.5v-2a1.4,1.4,0,0,1,.11-.58,1.56,1.56,0,0,1,.32-.47,1.47,1.47,0,0,1,1.63-.32,1.52,1.52,0,0,1,.48.31,1.43,1.43,0,0,1,.33.47A1.48,1.48,0,0,1,22,13.5ZM30,17V13a2,2,0,0,0-.16-.77,2.06,2.06,0,0,0-.43-.64,2.09,2.09,0,0,0-.64-.42A2,2,0,0,0,28,11H26.82c.06.32.1.65.14,1s.05.67.05,1v6h1a2,2,0,0,0,.78-.16,2.35,2.35,0,0,0,.64-.44,2.13,2.13,0,0,0,.43-.63A2,2,0,0,0,30,17Z"/></svg>