<svg id="Layer_1" data-name="Layer 1" xmlns="http://www.w3.org/2000/svg" viewBox="0 0 32 31.98"><defs><style>.cls-1{fill:#231f20;}</style></defs><title>smile</title><path class="cls-1" d="M16,32A15.41,15.41,0,0,1,4.69,27.3,15.38,15.38,0,0,1,0,16,15.38,15.38,0,0,1,4.69,4.68,15.41,15.41,0,0,1,16,0,15.41,15.41,0,0,1,27.31,4.68,15.38,15.38,0,0,1,32,16,15.38,15.38,0,0,1,27.31,27.3,15.41,15.41,0,0,1,16,32Zm0-2a13.44,13.44,0,0,0,9.87-4.08A13.41,13.41,0,0,0,30,16a13.45,13.45,0,0,0-4.09-9.87A13.42,13.42,0,0,0,16,2,13.42,13.42,0,0,0,6.13,6.13,13.45,13.45,0,0,0,2,16a13.41,13.41,0,0,0,4.09,9.86A13.44,13.44,0,0,0,16,29.94ZM6.61,16.87H7.86q1.5,6.61,8.14,6.61t8.14-6.61h1.27a10.58,10.58,0,0,1-3,6.71A8.87,8.87,0,0,1,16,26a8.83,8.83,0,0,1-6.43-2.43A10.62,10.62,0,0,1,6.61,16.87Zm4.3-3.43a2.53,2.53,0,0,1-2.53-2.53,2.53,2.53,0,0,1,2.53-2.53,2.53,2.53,0,0,1,2.55,2.53,2.43,2.43,0,0,1-.75,1.79A2.48,2.48,0,0,1,10.91,13.44Zm10.18,0a2.48,2.48,0,0,1-1.8-.74,2.51,2.51,0,0,1,0-3.58,2.45,2.45,0,0,1,1.8-.74,2.53,2.53,0,0,1,2.53,2.53,2.53,2.53,0,0,1-2.53,2.53Z"/></svg>